#!OML:ASF E:\emotionWalksFemale\Project 1\Capture day 1\Session 1\Female1.ASF
:FULLY-SPECIFIED
:DEGREES
551
root 8.50152 15.483 19.4048 364.198 24.5333 -361.948
lowerback 10.066 2.32847 2.23236
upperback -5.00217 3.39195 -0.82967
thorax -10.8764 1.43216 -2.80224
lowerneck -2.28103 -12.3998 -14.8111
upperneck -1.07035 -16.3423 12.192
head 2.26562 -8.05743 5.25502
rclavicle 1.32316e-015 -9.34288e-015
rhumerus -41.8233 30.2249 -105.688
rradius 39.4153
rwrist 18.2494
rhand -6.12401 -52.8702
rfingers 7.12502
rthumb 19.7131 278.109
lclavicle 1.32316e-015 -9.34288e-015
lhumerus -52.0373 2.68984 75.6996
lradius 28.1821
lwrist -30.2518
lhand 27.503 -27.2866
lfingers 7.12502
lthumb 51.4487 -6.85913
rfemur -7.31347 -1.05301 30.4536
rtibia 22.4362
rfoot -17.6675 -29.683
rtoes 3.8726
lfemur -19.3814 -17.8994 -18.2652
ltibia 37.2483
lfoot -26.1787 3.74103
ltoes -27.9839
552
root 8.52597 15.512 19.4141 364.099 23.7085 -362.028
lowerback 9.53444 2.29926 2.30255
upperback -5.12351 3.34749 -0.888436
thorax -10.689 1.40881 -2.87128
lowerneck -2.58335 -12.0966 -14.6501
upperneck -0.145732 -15.9557 12.0107
head 2.51005 -7.86215 5.16743
rclavicle 2.20713e-014 -1.03368e-014
rhumerus -42.4731 30.4443 -105.9
rradius 39.681
rwrist 17.524
rhand -5.14878 -51.5538
rfingers 7.12502
rthumb 20.6505 279.525
lclavicle 2.20713e-014 -1.03368e-014
lhumerus -51.4994 2.23972 76.1717
lradius 28.1624
lwrist -29.9171
lhand 26.9906 -26.6804
lfingers 7.12502
lthumb 50.9822 -5.98904
rfemur -6.10666 0.125539 30.3746
rtibia 20.5597
rfoot -17.0804 -29.9216
rtoes -1.03428
lfemur -18.6825 -18.1367 -18.4236
ltibia 36.1256
lfoot -25.8998 3.39893
ltoes -27.5819
553
root 8.54823 15.5383 19.4192 363.982 22.8375 -362.149
lowerback 9.14352 2.26968 2.42639
upperback -5.29195 3.3131 -0.952855
thorax -10.635 1.38188 -2.98849
lowerneck -2.88072 -11.7904 -14.3567
upperneck 0.790764 -15.5706 11.79
head 2.74576 -7.66764 5.05154
rclavicle -1.57164e-014 -1.51076e-014
rhumerus -43.1415 30.469 -105.984
rradius 39.9741
rwrist 17.0052
rhand -3.9732 -50.2754
rfingers 7.12502
rthumb 21.7797 280.93
lclavicle -1.57164e-014 -1.51076e-014
lhumerus -51.0758 1.80225 76.4551
lradius 27.9833
lwrist -30.0706
lhand 26.8799 -26.119
lfingers 7.12502
lthumb 50.8813 -5.37164
rfemur -5.01531 1.48576 30.3684
rtibia 18.8982
rfoot -16.3982 -30.2886
rtoes -2.96768
lfemur -18.0474 -18.1493 -18.6232
ltibia 35.102
lfoot -25.3317 3.52233
ltoes -29.6836
554
root 8.56577 15.5635 19.4272 363.955 21.8349 -362.191
lowerback 8.70609 2.28814 2.38609
upperback -5.49794 3.31907 -1.02871
thorax -10.6002 1.38502 -3.03203
lowerneck -2.98336 -11.4656 -13.9209
upperneck 1.56356 -15.1746 11.4488
head 2.88151 -7.47429 4.89874
rclavicle 4.62423e-014 9.14409e-015
rhumerus -43.9794 30.6303 -106.187
rradius 40.2778
rwrist 15.7565
rhand -3.06158 -49.2811
rfingers 7.12502
rthumb 22.6549 282.029
lclavicle 4.62423e-014 9.14409e-015
lhumerus -50.9322 0.96945 76.9029
lradius 28.1219
lwrist -29.9615
lhand 25.1063 -27.4003
lfingers 7.12502
lthumb 49.2588 -5.79692
rfemur -4.09233 3.05284 30.3258
rtibia 17.5351
rfoot -15.9615 -30.6182
rtoes -3.60343
lfemur -17.4886 -17.977 -18.8751
ltibia 34.159
lfoot -24.9395 3.61574
ltoes -32.3177
555
root 8.578 15.5863 19.4428 364.046 20.7424 -362.191
lowerback 8.0598 2.34723 2.11415
upperback -5.67874 3.35035 -1.051
thorax -10.4256 1.42398 -2.87931
lowerneck -3.12358 -11.1483 -13.4803
upperneck 2.22833 -14.7756 11.1029
head 2.99325 -7.2774 4.74445
rclavicle 4.09496e-014 1.43125e-014
rhumerus -44.5087 30.4161 -106.052
rradius 40.3832
rwrist 14.5691
rhand -2.14348 -48.4473
rfingers 7.12502
rthumb 23.5358 282.973
lclavicle 4.09496e-014 1.43125e-014
lhumerus -50.7199 0.248888 77.3232
lradius 28.2104
lwrist -29.7319
lhand 24.574 -26.6908
lfingers 7.12502
lthumb 48.7697 -4.8453
rfemur -3.44347 4.77685 30.2898
rtibia 16.5547
rfoot -15.703 -30.9422
rtoes -2.80577
lfemur -17.0287 -17.9157 -19.0651
ltibia 33.2944
lfoot -24.4062 2.96453
ltoes -31.4603
